<svg xmlns="http://www.w3.org/2000/svg" width="1200" height="720" viewBox="0 0 1200 720" role="img" aria-labelledby="title desc">
  <title id="title">DayDock Screenshot Placeholder</title>
  <desc id="desc">Placeholder image for DayDock README screenshot section.</desc>
  <defs>
    <linearGradient id="bg" x1="0%" y1="0%" x2="100%" y2="100%">
      <stop offset="0%" stop-color="#f8efe4" />
      <stop offset="100%" stop-color="#efe5d8" />
    </linearGradient>
  </defs>
  <rect width="1200" height="720" fill="url(#bg)" />
  <rect x="290" y="70" width="620" height="580" rx="18" fill="#fffaf3" stroke="#d7c8b6" />
  <rect x="330" y="120" width="540" height="32" rx="8" fill="#f0e5d8" />
  <rect x="330" y="180" width="540" height="18" rx="6" fill="#e6d6c4" />
  <rect x="330" y="210" width="540" height="18" rx="6" fill="#e6d6c4" />
  <rect x="330" y="260" width="540" height="18" rx="6" fill="#e6d6c4" />
  <rect x="330" y="290" width="540" height="18" rx="6" fill="#e6d6c4" />
  <rect x="330" y="340" width="540" height="18" rx="6" fill="#e6d6c4" />
  <rect x="330" y="370" width="540" height="18" rx="6" fill="#e6d6c4" />
  <rect x="330" y="420" width="540" height="18" rx="6" fill="#e6d6c4" />
  <rect x="330" y="450" width="540" height="18" rx="6" fill="#e6d6c4" />
  <text x="600" y="560" text-anchor="middle" font-family="Helvetica, Arial, sans-serif" font-size="26" fill="#7a5d42">Replace with a real DayDock screenshot</text>
</svg>
